<?xml version="1.0" standalone="no"?><!DOCTYPE svg PUBLIC "-//W3C//DTD SVG 1.1//EN" "http://www.w3.org/Graphics/SVG/1.1/DTD/svg11.dtd"><svg class="icon" width="200px" height="200.00px" viewBox="0 0 1024 1024" version="1.1" xmlns="http://www.w3.org/2000/svg"><path fill="#333333" d="M118.11 223.48l128.58 617.23h738.97V238.72H380.64v110.87h494.15v380.25H336.85L313.17 616.2h343.43V505.33H290.07L184.8 0 0 184.8l78.39 78.4zM400.91 853.88c-44.32 0-80.38 36.06-80.38 80.38v6.24c0 44.32 36.06 80.38 80.38 80.38h6.24c44.32 0 80.38-36.06 80.38-80.38v-6.24c0-44.32-36.06-80.38-80.38-80.38h-6.24z m30.33 83.49c-1.46 14.33-12.89 25.75-27.21 27.21-14.33-1.46-25.75-12.89-27.21-27.21 1.46-14.33 12.89-25.75 27.21-27.21 14.32 1.46 25.75 12.89 27.21 27.21zM849.93 853.88c-44.32 0-80.38 36.06-80.38 80.38v6.24c0 44.32 36.06 80.38 80.38 80.38h6.24c44.32 0 80.38-36.06 80.38-80.38v-6.24c0-44.32-36.06-80.38-80.38-80.38h-6.24z m30.33 83.49c-1.46 14.33-12.89 25.75-27.21 27.21-14.33-1.46-25.75-12.89-27.21-27.21 1.46-14.33 12.89-25.75 27.21-27.21 14.33 1.46 25.75 12.89 27.21 27.21z" /></svg>